<?xml version="1.0" encoding="UTF-8" standalone="no"?>
<!-- Created with Inkscape (http://www.inkscape.org/) -->

<svg
   xmlns:dc="http://purl.org/dc/elements/1.1/"
   xmlns:cc="http://creativecommons.org/ns#"
   xmlns:rdf="http://www.w3.org/1999/02/22-rdf-syntax-ns#"
   xmlns:svg="http://www.w3.org/2000/svg"
   xmlns="http://www.w3.org/2000/svg"
   xmlns:sodipodi="http://sodipodi.sourceforge.net/DTD/sodipodi-0.dtd"
   xmlns:inkscape="http://www.inkscape.org/namespaces/inkscape"
   width="107.771mm"
   height="30.265936mm"
   viewBox="0 0 107.77101 30.265936"
   version="1.1"
   id="svg8"
   inkscape:version="0.91 r13725"
   sodipodi:docname="akida.svg">
  <defs
     id="defs2" />
  <sodipodi:namedview
     id="base"
     pagecolor="#7f7f7f"
     bordercolor="#666666"
     borderopacity="1.0"
     inkscape:pageopacity="0"
     inkscape:pageshadow="2"
     inkscape:zoom="0.98994949"
     inkscape:cx="90.40984"
     inkscape:cy="122.52597"
     inkscape:document-units="mm"
     inkscape:current-layer="layer1"
     showgrid="false"
     inkscape:window-width="1920"
     inkscape:window-height="1018"
     inkscape:window-x="-8"
     inkscape:window-y="-8"
     inkscape:window-maximized="1"
     fit-margin-top="0"
     fit-margin-left="0"
     fit-margin-right="0"
     fit-margin-bottom="0" />
  <metadata
     id="metadata5">
    <rdf:RDF>
      <cc:Work
         rdf:about="">
        <dc:format>image/svg+xml</dc:format>
        <dc:type
           rdf:resource="http://purl.org/dc/dcmitype/StillImage" />
        <dc:title></dc:title>
      </cc:Work>
    </rdf:RDF>
  </metadata>
  <g
     inkscape:label="Calque 1"
     inkscape:groupmode="layer"
     id="layer1"
     transform="translate(-2.7656,-6.3641881)">
    <g
       id="g4576-1-8"
       style="fill:#78b4ff;fill-opacity:1"
       transform="translate(-168.3254,-15.72381)">
      <path
         inkscape:connector-curvature="0"
         id="path4546-7-7"
         d="M 180.5531,52.01243 C 179.695,51.52911 179.028,50.34854 179.0296,49.31595 179.0303,48.90852 180.0423,46.39093 181.2786,43.72129 183.534,38.85097 183.8601,37.65452 183.2452,36.5056 183.0905,36.21662 181.6098,34.13949 179.9547,31.88976 178.2997,29.64004 176.8671,27.55224 176.7712,27.25021 176.2546,25.62246 177.6514,23.62612 179.4619,23.40467 181.0427,23.21132 181.8577,23.92267 185.1811,28.39623 186.8412,30.63082 188.5332,32.72173 188.9413,33.04268 189.8797,33.78088 190.7241,33.78453 196.7257,33.07636 200.4447,32.63753 201.5887,32.58701 202.3906,32.82619 204.8308,33.554 205.1253,37.16621 202.844,38.38711 202.5772,38.52989 199.8507,38.94025 196.785,39.29902 193.7193,39.65779 191,40.06506 190.7421,40.20407 189.7601,40.73339 189.093,41.83328 187.1093,46.19395 185.9838,48.6678 184.7318,51.03228 184.3269,51.44833 183.4242,52.37602 181.6654,52.63891 180.5531,52.01243 Z"
         style="fill:#78b4ff;fill-opacity:1;stroke-width:1" />
      <path
         inkscape:connector-curvature="0"
         id="path4544-4-0"
         d="M 194.6389,50.90189 C 193.4735,50.47589 190.7234,46.85964 190.4952,45.45311 190.3271,44.41748 190.8892,43.13383 191.7858,42.50584 192.1189,42.27252 192.9214,42.09291 193.6306,42.09291 194.7017,42.09291 195.0158,42.22293 195.7725,42.9796 197.1993,44.40641 198.8722,47.09268 198.8722,47.95703 198.8722,50.1065 196.6644,51.64233 194.6389,50.90189 Z"
         style="fill:#78b4ff;fill-opacity:1;stroke-width:1" />
      <path
         inkscape:connector-curvature="0"
         id="path4538-1-2"
         d="M 172.7811,41.32104 C 171.8005,40.89568 171.091,39.7299 171.091,38.54422 171.091,36.33818 172.3377,35.5253 176.07,35.29792 179.111,35.11265 180.0184,35.43285 180.7356,36.9443 181.4607,38.47226 180.7713,40.24641 179.1968,40.90426 178.1351,41.34789 173.5323,41.6469 172.7811,41.32104 Z"
         style="fill:#78b4ff;fill-opacity:1;stroke-width:1" />
      <path
         inkscape:connector-curvature="0"
         id="path4496-3-8"
         d="M 190.224,30.99357 C 188.4716,29.92509 188.3733,28.43551 189.8475,25.28973 190.4137,24.08151 191.1578,22.91117 191.5011,22.68898 193.7419,21.23877 196.487,22.55903 196.49,25.08831 196.491,26.44529 194.4926,30.38679 193.4941,30.99564 192.4254,31.64729 191.2949,31.64658 190.224,30.99354 Z"
         style="fill:#78b4ff;fill-opacity:1;stroke-width:1" />
    </g>
    <text
       xml:space="preserve"
       style="font-style:normal;font-weight:normal;font-size:11.28888893px;line-height:125%;font-family:sans-serif;letter-spacing:0px;word-spacing:0px;fill:#ffffff;fill-opacity:1;stroke:none;stroke-width:1px;stroke-linecap:butt;stroke-linejoin:miter;stroke-opacity:1"
       x="42.013657"
       y="29.591478"
       id="text4167"
       sodipodi:linespacing="125%"><tspan
         sodipodi:role="line"
         id="tspan4169"
         x="42.013657"
         y="29.591478"
         style="font-size:25.39999962px;fill:#ffffff;fill-opacity:1">Akida</tspan></text>
  </g>
</svg>
