<svg id="svg" version="1.1" xmlns="http://www.w3.org/2000/svg" xmlns:xlink="http://www.w3.org/1999/xlink" width="400" height="253.92491467576792" viewBox="0, 0, 400,253.92491467576792"><g id="svgg"><path id="path0" d="M279.111 24.395 C 277.726 25.262,270.648 29.460,270.571 29.460 C 270.520 29.460,269.191 30.247,267.620 31.208 C 265.010 32.804,261.027 35.139,258.794 36.382 C 258.305 36.654,257.733 37.022,257.524 37.199 C 257.314 37.376,256.571 37.835,255.873 38.218 C 254.241 39.113,250.694 41.199,246.283 43.860 C 244.360 45.020,242.738 45.968,242.678 45.968 C 242.618 45.968,241.077 46.883,239.254 48.000 C 237.430 49.117,235.888 50.032,235.825 50.032 C 235.729 50.032,229.708 53.624,228.571 54.360 C 228.362 54.495,228.019 54.685,227.810 54.782 C 227.600 54.878,225.972 55.849,224.192 56.939 C 222.411 58.029,220.896 58.921,220.824 58.921 C 220.752 58.921,219.808 59.470,218.727 60.142 C 217.646 60.814,216.019 61.788,215.111 62.307 C 214.203 62.825,213.289 63.356,213.079 63.487 C 211.525 64.460,208.449 66.286,208.364 66.286 C 208.307 66.286,206.676 67.250,204.740 68.428 C 197.829 72.634,199.090 72.472,194.286 69.765 C 193.797 69.490,192.768 68.924,192.000 68.508 C 189.027 66.896,187.800 66.211,187.556 66.026 C 187.416 65.920,186.444 65.384,185.397 64.835 C 184.349 64.287,182.521 63.284,181.333 62.607 C 180.146 61.930,178.489 61.016,177.651 60.576 C 176.813 60.136,175.213 59.254,174.095 58.617 C 172.978 57.980,171.435 57.118,170.667 56.700 C 169.898 56.283,168.870 55.716,168.381 55.441 C 167.892 55.166,166.806 54.563,165.968 54.103 C 165.130 53.643,164.330 53.180,164.190 53.075 C 164.051 52.970,162.965 52.372,161.778 51.747 C 160.590 51.121,159.105 50.324,158.476 49.975 C 157.848 49.626,156.648 48.963,155.810 48.502 C 154.199 47.615,153.541 47.250,151.492 46.103 C 150.794 45.712,149.594 45.052,148.825 44.635 C 145.869 43.032,144.626 42.339,144.381 42.157 C 144.241 42.053,143.356 41.554,142.413 41.047 C 141.470 40.541,139.927 39.713,138.984 39.206 C 138.041 38.700,137.156 38.200,137.016 38.096 C 136.876 37.991,136.019 37.507,135.111 37.019 C 134.203 36.531,133.060 35.907,132.571 35.632 C 131.160 34.836,129.007 33.647,127.492 32.826 C 126.724 32.409,125.695 31.843,125.206 31.568 C 123.801 30.776,121.645 29.585,120.127 28.762 C 118.129 27.678,116.328 26.668,115.302 26.055 C 112.720 24.512,114.496 24.622,93.206 24.695 L 73.778 24.762 73.618 27.556 C 73.398 31.397,73.033 225.649,73.245 225.992 C 73.355 226.170,73.903 225.955,74.791 225.388 C 75.547 224.904,76.219 224.508,76.284 224.508 C 76.349 224.508,78.654 223.137,81.407 221.460 C 84.160 219.784,86.452 218.413,86.500 218.413 C 86.577 218.413,93.999 213.962,94.984 213.324 C 95.194 213.189,95.594 212.977,95.873 212.853 C 96.152 212.729,96.992 212.215,97.740 211.711 C 98.487 211.206,99.141 210.794,99.193 210.794 C 99.245 210.794,100.463 210.071,101.898 209.188 C 103.333 208.305,104.679 207.504,104.889 207.407 C 105.098 207.311,105.613 207.007,106.032 206.731 C 106.451 206.455,107.029 206.125,107.316 205.997 C 107.603 205.869,108.203 205.457,108.649 205.082 L 109.460 204.399 109.460 134.989 C 109.460 72.236,109.498 65.564,109.858 65.426 C 110.077 65.342,110.848 65.599,111.572 65.998 C 112.296 66.397,113.575 67.097,114.413 67.554 C 115.251 68.011,116.051 68.469,116.190 68.571 C 116.506 68.802,118.318 69.807,121.143 71.317 C 122.330 71.952,123.728 72.736,124.249 73.061 C 124.770 73.385,125.258 73.651,125.333 73.651 C 125.409 73.651,125.897 73.918,126.418 74.246 C 127.353 74.833,127.946 75.164,132.444 77.613 C 133.702 78.297,134.959 78.996,135.238 79.165 C 135.517 79.334,135.917 79.554,136.127 79.654 C 136.337 79.754,136.916 80.090,137.416 80.401 C 137.915 80.712,139.286 81.476,140.463 82.099 C 143.112 83.501,145.062 84.580,145.397 84.827 C 145.537 84.931,146.394 85.414,147.302 85.902 C 148.210 86.389,149.352 87.013,149.841 87.289 C 150.330 87.565,151.416 88.167,152.254 88.627 C 153.092 89.087,153.892 89.550,154.032 89.655 C 154.171 89.760,155.257 90.358,156.444 90.984 C 157.632 91.609,159.003 92.358,159.492 92.647 C 159.981 92.937,161.181 93.596,162.159 94.111 C 163.137 94.626,164.051 95.133,164.190 95.236 C 164.330 95.340,165.130 95.801,165.968 96.262 C 166.806 96.722,167.835 97.291,168.254 97.525 C 168.673 97.760,169.759 98.354,170.667 98.847 C 171.575 99.339,172.717 99.979,173.206 100.270 C 174.351 100.950,174.882 101.245,177.651 102.737 C 178.908 103.414,180.896 104.519,182.068 105.191 C 183.241 105.863,184.243 106.413,184.295 106.413 C 184.348 106.413,184.817 106.680,185.338 107.007 C 185.859 107.333,187.257 108.119,188.444 108.754 C 189.632 109.388,191.003 110.144,191.492 110.432 C 191.981 110.721,192.667 111.113,193.016 111.304 C 195.271 112.539,196.765 113.389,197.199 113.688 C 198.061 114.280,198.834 114.076,201.231 112.625 C 202.510 111.852,203.727 111.118,203.937 110.994 C 204.515 110.654,211.358 106.576,211.839 106.286 C 212.070 106.146,213.101 105.526,214.130 104.908 C 215.158 104.290,218.322 102.376,221.160 100.654 C 223.998 98.932,226.365 97.524,226.422 97.524 C 226.478 97.524,228.271 96.459,230.405 95.157 C 232.539 93.856,234.457 92.715,234.667 92.623 C 234.876 92.532,237.201 91.139,239.832 89.530 C 242.464 87.920,244.660 86.603,244.714 86.603 C 244.798 86.603,252.197 82.170,253.206 81.514 C 253.416 81.378,253.754 81.189,253.958 81.094 C 254.162 80.999,255.933 79.936,257.894 78.731 C 259.856 77.527,261.632 76.462,261.841 76.363 C 262.051 76.265,262.565 75.959,262.984 75.683 C 263.403 75.406,263.917 75.099,264.127 75.001 C 264.337 74.902,265.965 73.929,267.745 72.839 C 269.525 71.749,271.057 70.857,271.149 70.857 C 271.242 70.857,271.692 70.571,272.150 70.222 C 272.607 69.873,273.046 69.587,273.125 69.587 C 273.203 69.587,275.043 68.502,277.213 67.175 C 279.383 65.848,281.217 64.762,281.290 64.762 C 281.362 64.762,282.073 64.338,282.869 63.821 C 283.666 63.303,284.717 62.660,285.206 62.391 C 285.695 62.123,286.313 61.752,286.579 61.567 C 286.919 61.330,287.202 61.305,287.531 61.481 C 287.985 61.724,288.000 63.978,288.004 132.771 C 288.006 171.842,288.103 203.960,288.220 204.144 C 288.336 204.327,288.706 204.624,289.041 204.804 C 290.082 205.360,291.647 206.235,292.470 206.720 C 292.903 206.976,293.989 207.582,294.883 208.066 C 296.537 208.962,297.077 209.264,300.444 211.175 C 301.492 211.769,302.978 212.597,303.746 213.014 C 304.514 213.431,305.543 213.998,306.032 214.273 C 306.521 214.549,307.606 215.154,308.444 215.618 C 309.283 216.081,310.368 216.708,310.857 217.011 C 311.346 217.313,311.917 217.643,312.127 217.743 C 312.337 217.843,312.737 218.063,313.016 218.233 C 313.295 218.402,314.781 219.225,316.317 220.061 C 317.854 220.896,319.340 221.720,319.619 221.891 C 319.898 222.062,320.298 222.286,320.508 222.388 C 320.717 222.490,321.517 222.952,322.286 223.413 C 323.054 223.875,323.768 224.253,323.873 224.253 C 323.978 224.254,324.063 179.225,324.063 124.190 L 324.063 24.127 301.778 24.142 C 288.357 24.151,279.341 24.252,279.111 24.395 " stroke="none" fill="#005481" fill-rule="evenodd"></path><path id="path1" d="M277.460 80.491 C 276.622 81.007,274.225 82.451,272.134 83.699 C 270.042 84.947,268.100 86.107,267.816 86.276 C 267.533 86.445,267.130 86.665,266.921 86.765 C 266.711 86.866,265.551 87.556,264.342 88.299 C 263.134 89.043,262.019 89.651,261.866 89.651 C 261.713 89.651,261.587 89.739,261.587 89.846 C 261.587 89.954,260.873 90.432,260.000 90.910 C 259.127 91.388,257.270 92.479,255.873 93.336 C 254.476 94.193,253.162 94.972,252.952 95.069 C 252.743 95.165,252.229 95.470,251.810 95.746 C 251.390 96.022,250.886 96.326,250.689 96.421 C 250.492 96.516,249.121 97.321,247.642 98.210 C 246.163 99.099,244.781 99.928,244.571 100.052 C 244.362 100.176,242.597 101.230,240.650 102.393 C 238.703 103.556,236.989 104.554,236.841 104.610 C 236.693 104.666,235.906 105.152,235.093 105.689 C 234.280 106.227,233.565 106.667,233.503 106.667 C 233.442 106.667,232.190 107.410,230.721 108.317 C 229.252 109.225,227.984 109.968,227.903 109.968 C 227.822 109.968,227.248 110.311,226.627 110.730 C 226.006 111.149,225.456 111.492,225.404 111.492 C 225.352 111.492,224.415 112.045,223.322 112.722 C 222.228 113.398,220.788 114.254,220.122 114.624 C 219.456 114.994,217.228 116.308,215.170 117.544 C 213.112 118.781,209.625 120.867,207.420 122.182 L 203.412 124.571 203.446 178.477 C 203.467 211.446,203.572 232.439,203.716 232.529 C 203.919 232.654,207.956 230.370,212.825 227.373 C 215.390 225.795,222.246 221.714,222.332 221.714 C 222.379 221.714,223.602 220.989,225.050 220.103 L 227.683 218.491 227.748 200.920 L 227.813 183.348 229.738 182.150 C 230.797 181.491,232.399 180.467,233.298 179.873 C 234.197 179.279,234.995 178.794,235.071 178.794 C 235.146 178.794,235.572 178.522,236.017 178.190 C 236.462 177.859,237.302 177.316,237.885 176.984 C 238.468 176.652,241.382 174.860,244.361 173.001 C 247.340 171.142,250.006 169.485,250.286 169.319 C 250.565 169.153,251.137 168.781,251.556 168.493 C 251.975 168.204,255.689 165.877,259.810 163.321 C 263.930 160.766,269.987 157.001,273.270 154.955 L 279.238 151.236 279.403 149.840 C 279.494 149.072,279.580 143.955,279.594 138.467 L 279.619 128.490 279.048 128.789 C 278.733 128.953,275.420 130.957,271.685 133.242 C 267.949 135.527,264.787 137.397,264.658 137.397 C 264.529 137.397,264.385 137.489,264.339 137.602 C 264.259 137.796,260.765 139.970,258.755 141.077 C 258.245 141.358,257.045 142.083,256.088 142.689 C 255.132 143.295,251.149 145.726,247.238 148.092 C 243.327 150.458,239.956 152.508,239.746 152.649 C 239.537 152.789,239.165 152.971,238.921 153.053 C 238.676 153.135,238.476 153.283,238.476 153.381 C 238.476 153.480,237.952 153.838,237.312 154.177 C 235.944 154.901,236.105 154.806,232.422 157.079 C 228.590 159.444,228.311 159.587,228.036 159.312 C 227.901 159.177,227.832 153.898,227.871 146.670 L 227.937 134.258 230.730 132.536 C 232.267 131.589,233.810 130.667,234.159 130.489 C 234.508 130.310,235.798 129.563,237.025 128.828 C 238.252 128.093,239.317 127.492,239.391 127.492 C 239.465 127.492,239.901 127.206,240.358 126.857 C 240.816 126.508,241.262 126.222,241.348 126.222 C 241.435 126.222,242.543 125.594,243.810 124.825 C 245.076 124.057,246.156 123.429,246.208 123.429 C 246.260 123.429,247.803 122.514,249.635 121.397 C 251.468 120.279,253.017 119.365,253.078 119.365 C 253.139 119.365,254.225 118.737,255.492 117.968 C 256.759 117.200,257.854 116.571,257.924 116.571 C 257.995 116.571,258.191 116.454,258.360 116.310 C 258.699 116.021,264.633 112.508,264.782 112.508 C 264.833 112.508,266.077 111.765,267.546 110.857 C 269.015 109.949,270.271 109.206,270.338 109.206 C 270.437 109.206,274.153 107.039,275.556 106.163 C 275.765 106.032,276.638 105.522,277.495 105.030 C 278.353 104.537,279.124 103.952,279.210 103.729 C 279.435 103.141,279.401 79.797,279.175 79.664 C 279.070 79.602,278.298 79.974,277.460 80.491 M117.587 95.949 L 117.587 109.613 119.429 110.650 C 120.441 111.221,122.041 112.101,122.984 112.606 C 125.945 114.191,129.851 116.307,131.810 117.388 C 133.218 118.164,136.821 120.086,138.574 120.997 C 141.024 122.269,140.799 119.301,140.610 147.873 C 140.519 161.737,140.369 179.895,140.278 188.225 L 140.113 203.370 141.104 203.994 C 141.963 204.534,143.854 205.623,147.287 207.557 C 147.784 207.836,149.048 208.524,150.095 209.085 C 151.143 209.645,152.629 210.472,153.397 210.922 C 154.165 211.372,155.422 212.081,156.190 212.498 C 160.242 214.694,164.727 217.217,164.940 217.420 C 165.817 218.258,165.841 217.918,165.841 204.994 C 165.841 198.033,165.917 179.965,166.010 164.843 C 166.200 134.081,166.008 136.564,168.099 137.695 C 169.902 138.671,175.781 141.988,176.635 142.512 C 177.054 142.769,177.568 143.057,177.778 143.151 C 177.987 143.245,179.016 143.803,180.063 144.392 C 183.153 146.127,183.669 146.415,185.270 147.294 C 186.108 147.754,186.908 148.215,187.048 148.319 C 187.187 148.423,188.044 148.906,188.952 149.394 C 189.860 149.882,191.155 150.591,191.830 150.969 C 193.767 152.057,193.641 152.911,193.744 137.984 L 193.836 124.538 192.093 123.603 C 189.735 122.339,187.799 121.246,186.345 120.358 C 185.680 119.952,185.092 119.619,185.040 119.619 C 184.988 119.619,183.532 118.835,181.806 117.877 C 180.079 116.919,178.095 115.818,177.397 115.430 C 176.698 115.043,176.013 114.640,175.873 114.535 C 175.733 114.430,174.648 113.832,173.460 113.207 C 172.273 112.581,170.902 111.833,170.413 111.544 C 169.492 110.999,168.728 110.572,166.349 109.275 C 165.581 108.856,164.552 108.288,164.063 108.012 C 163.575 107.737,162.489 107.135,161.651 106.675 C 160.813 106.214,160.013 105.750,159.873 105.644 C 159.733 105.537,158.590 104.904,157.333 104.236 C 156.076 103.568,154.621 102.756,154.100 102.431 C 153.579 102.107,153.091 101.841,153.016 101.841 C 152.940 101.841,152.452 101.574,151.931 101.247 C 150.822 100.550,149.280 99.687,146.289 98.089 C 145.100 97.454,143.727 96.687,143.238 96.385 C 142.749 96.083,142.178 95.754,141.968 95.654 C 141.759 95.554,141.359 95.333,141.079 95.164 C 140.800 94.995,139.314 94.172,137.778 93.336 C 136.241 92.500,134.756 91.677,134.476 91.506 C 134.197 91.334,133.797 91.113,133.587 91.013 C 133.378 90.913,132.798 90.576,132.299 90.266 C 131.799 89.955,130.428 89.189,129.251 88.564 C 128.074 87.938,126.386 87.013,125.499 86.507 C 124.613 86.001,123.844 85.587,123.790 85.587 C 123.736 85.587,122.975 85.153,122.100 84.622 C 120.437 83.615,117.946 82.286,117.719 82.286 C 117.647 82.286,117.587 88.434,117.587 95.949 " stroke="none" fill="#fafafa" fill-rule="evenodd"></path></g></svg>