<?xml version="1.0" encoding="UTF-8" standalone="no"?>
<!-- Created with Inkscape (http://www.inkscape.org/) -->

<svg
   xmlns:dc="http://purl.org/dc/elements/1.1/"
   xmlns:cc="http://creativecommons.org/ns#"
   xmlns:rdf="http://www.w3.org/1999/02/22-rdf-syntax-ns#"
   xmlns:svg="http://www.w3.org/2000/svg"
   xmlns="http://www.w3.org/2000/svg"
   xmlns:sodipodi="http://sodipodi.sourceforge.net/DTD/sodipodi-0.dtd"
   xmlns:inkscape="http://www.inkscape.org/namespaces/inkscape"
   width="196.82059mm"
   height="69.750687mm"
   viewBox="0 0 196.82059 69.750687"
   version="1.1"
   id="svg8"
   inkscape:version="0.92.4 (5da689c313, 2019-01-14)"
   sodipodi:docname="Brainchip_simple_vector.svg">
  <defs
     id="defs2" />
  <sodipodi:namedview
     id="base"
     pagecolor="#ffffff"
     bordercolor="#666666"
     borderopacity="1.0"
     inkscape:pageopacity="0.0"
     inkscape:pageshadow="2"
     inkscape:zoom="1.4"
     inkscape:cx="621.2677"
     inkscape:cy="203.60578"
     inkscape:document-units="mm"
     inkscape:current-layer="layer1"
     showgrid="false"
     inkscape:window-width="958"
     inkscape:window-height="1003"
     inkscape:window-x="952"
     inkscape:window-y="0"
     inkscape:window-maximized="0"
     fit-margin-top="0"
     fit-margin-left="0"
     fit-margin-right="0"
     fit-margin-bottom="0" />
  <metadata
     id="metadata5">
    <rdf:RDF>
      <cc:Work
         rdf:about="">
        <dc:format>image/svg+xml</dc:format>
        <dc:type
           rdf:resource="http://purl.org/dc/dcmitype/StillImage" />
        <dc:title />
      </cc:Work>
    </rdf:RDF>
  </metadata>
  <g
     inkscape:label="Calque 1"
     inkscape:groupmode="layer"
     id="layer1"
     transform="translate(-7.5783483,-22.087997)">
    <g
       id="g4576-1-8"
       style="fill:#78b4ff;fill-opacity:1">
      <path
         inkscape:connector-curvature="0"
         id="path4546-7-7"
         d="M 180.5531,52.01243 C 179.695,51.52911 179.028,50.34854 179.0296,49.31595 179.0303,48.90852 180.0423,46.39093 181.2786,43.72129 183.534,38.85097 183.8601,37.65452 183.2452,36.5056 183.0905,36.21662 181.6098,34.13949 179.9547,31.88976 178.2997,29.64004 176.8671,27.55224 176.7712,27.25021 176.2546,25.62246 177.6514,23.62612 179.4619,23.40467 181.0427,23.21132 181.8577,23.92267 185.1811,28.39623 186.8412,30.63082 188.5332,32.72173 188.9413,33.04268 189.8797,33.78088 190.7241,33.78453 196.7257,33.07636 200.4447,32.63753 201.5887,32.58701 202.3906,32.82619 204.8308,33.554 205.1253,37.16621 202.844,38.38711 202.5772,38.52989 199.8507,38.94025 196.785,39.29902 193.7193,39.65779 191,40.06506 190.7421,40.20407 189.7601,40.73339 189.093,41.83328 187.1093,46.19395 185.9838,48.6678 184.7318,51.03228 184.3269,51.44833 183.4242,52.37602 181.6654,52.63891 180.5531,52.01243 Z"
         style="fill:#78b4ff;fill-opacity:1;stroke-width:1" />
      <path
         inkscape:connector-curvature="0"
         id="path4544-4-0"
         d="M 194.6389,50.90189 C 193.4735,50.47589 190.7234,46.85964 190.4952,45.45311 190.3271,44.41748 190.8892,43.13383 191.7858,42.50584 192.1189,42.27252 192.9214,42.09291 193.6306,42.09291 194.7017,42.09291 195.0158,42.22293 195.7725,42.9796 197.1993,44.40641 198.8722,47.09268 198.8722,47.95703 198.8722,50.1065 196.6644,51.64233 194.6389,50.90189 Z"
         style="fill:#78b4ff;fill-opacity:1;stroke-width:1" />
      <path
         inkscape:connector-curvature="0"
         id="path4538-1-2"
         d="M 172.7811,41.32104 C 171.8005,40.89568 171.091,39.7299 171.091,38.54422 171.091,36.33818 172.3377,35.5253 176.07,35.29792 179.111,35.11265 180.0184,35.43285 180.7356,36.9443 181.4607,38.47226 180.7713,40.24641 179.1968,40.90426 178.1351,41.34789 173.5323,41.6469 172.7811,41.32104 Z"
         style="fill:#78b4ff;fill-opacity:1;stroke-width:1" />
      <path
         inkscape:connector-curvature="0"
         id="path4496-3-8"
         d="M 190.224,30.99357 C 188.4716,29.92509 188.3733,28.43551 189.8475,25.28973 190.4137,24.08151 191.1578,22.91117 191.5011,22.68898 193.7419,21.23877 196.487,22.55903 196.49,25.08831 196.491,26.44529 194.4926,30.38679 193.4941,30.99564 192.4254,31.64729 191.2949,31.64658 190.224,30.99354 Z"
         style="fill:#78b4ff;fill-opacity:1;stroke-width:1" />
    </g>
    <g
       id="g4592-3-8">
      <path
         inkscape:connector-curvature="0"
         id="path4570-0-9"
         transform="scale(0.2645833,0.2645833)"
         d="M 614.8594,204.1602 C 605.0801,204.1403 602.675,204.4965 601.0898,205.5352 L 598.6426,207.1367 598.6426,275.2852 C 598.6426,337.2945 598.7911,343.5977 600.2969,345.2617 602.334,347.5125 610.3333,347.7684 613.2012,345.6738 615.0074,344.3544 615.1773,342.5325 615.6426,319.4238 L 616.1426,294.5918 627.1426,294.0137 C 646.4492,293.0014 650.9815,289.3397 663.7109,264.459 674.9637,242.465 677.314,229.2782 671.7188,219.5234 668.3569,213.6624 663.5362,209.67 656.2754,206.7324 651.6897,204.8771 648.6099,204.619 627.3398,204.2949 622.1987,204.2166 618.1191,204.1668 614.8594,204.1602 Z M 623.748,219.1621 C 626.46,219.1392 629.8399,219.1972 633.2324,219.3438 643.0203,219.7665 646.4797,220.3179 649.9746,222.0098 660.0047,226.8653 660.3305,230.4969 652.3145,248.0918 643.5837,267.2557 638.7289,275.2832 634.6289,277.3398 632.2089,278.5537 628.7727,279.0889 623.3926,279.0898 L 615.6426,279.0918 615.6426,249.6113 615.6426,220.1289 618.2695,219.4707 C 618.9916,219.2895 621.0361,219.185 623.748,219.1621 Z"
         style="fill:#919292;stroke-width:3.77952766" />
      <path
         inkscape:connector-curvature="0"
         id="path4566-5-8"
         d="M 107.8886,77.89 C 106.5347,77.41156 105.0111,75.98037 104.2749,74.49558 103.806,73.54999 103.746,72.77164 103.6686,66.63629 103.5711,58.90204 103.7432,57.79077 105.325,55.94281 105.8357,55.34615 106.8224,54.57875 107.5176,54.23749 108.6908,53.66157 109.1635,53.61006 114.0976,53.52055 120.2581,53.40882 120.291,53.4198 120.291,55.58994 120.291,56.33011 120.1502,56.96942 119.9602,57.0924 119.7783,57.21011 117.5459,57.36762 114.9993,57.44236 110.0013,57.58908 109.076,57.81326 108.4625,59.02624 108.0156,59.90971 107.98,71.92296 108.4214,72.89168 108.98,74.11773 110.0444,74.3717 114.6424,74.37596 119.7656,74.38076 120.124,74.50503 120.2402,76.31716 120.3713,78.36313 120.4283,78.34368 114.3716,78.31995 110.2854,78.30392 108.7768,78.20385 107.8886,77.89 Z"
         style="fill:#919292;stroke-width:1" />
      <path
         inkscape:connector-curvature="0"
         id="path4564-5-5"
         d="M 126.5087,77.85711 C 126.0721,77.80777 125.5066,77.58031 125.2519,77.35163 124.8196,76.96354 124.7889,75.75542 124.7889,59.17639 124.7889,38.8403 124.6228,40.24082 127.0339,40.24082 129.3924,40.24082 129.2868,39.794 129.2868,49.7691 129.2868,54.55232 129.381,58.52403 129.496,58.59515 129.6111,58.66627 130.5338,58.0164 131.5465,57.15098 134.1287,54.94443 136.6046,53.73291 138.5166,53.74039 141.1375,53.75063 142.9683,54.99439 144.1554,57.57103 144.7485,58.85828 144.7671,59.13887 144.8441,67.97926 144.9021,74.63695 144.8401,77.16441 144.6133,77.43812 144.226,77.90474 141.435,77.94781 140.9814,77.49416 140.7501,77.26286 140.6624,75.19787 140.6586,69.88739 140.6526,61.63059 140.4508,59.52913 139.5749,58.59677 138.7618,57.73121 137.8596,57.80561 136.065,58.88625 134.3592,59.91341 129.676,63.87597 129.4396,64.49219 129.3556,64.71118 129.2868,67.66401 129.2868,71.05401 129.2868,75.66912 129.2037,77.28339 128.9561,77.47918 128.5317,77.81465 127.5179,77.9712 126.5087,77.85711 Z"
         style="fill:#919292;stroke-width:1" />
      <path
         inkscape:connector-curvature="0"
         id="path4562-6-2"
         transform="scale(0.2645833,0.2645833)"
         d="M 37.01172,156.5918 C 32.69116,156.5918 31.17134,157.0168 30.0625,158.5332 28.87099,160.1627 28.64258,170.9472 28.64258,225.7109 28.64258,283.6844 28.81838,291.123 30.21484,292.5195 32.49196,294.7967 61.92148,294.7822 69.71094,292.5 78.44917,289.9399 84.58868,282.83 93.37695,265.0918 101.2788,249.1426 103.4507,243.3451 104.6133,235.0918 106.0846,224.6472 101.8969,215.7437 92.79688,209.9727 85.78014,205.5228 82.52978,204.8806 63.64258,204.2109 L 46.14258,203.5918 45.64258,181.3887 C 45.27483,165.0582 44.79997,158.8431 43.84375,157.8887 43.092,157.1383 40.20992,156.5918 37.01172,156.5918 Z M 53.68555,219.1621 C 56.35898,219.1396 59.68546,219.1985 63.01953,219.3457 76.78162,219.9529 82.21364,221.6031 86.25195,226.4023 90.10322,230.9794 89.17197,234.5118 78.47852,255.9102 70.96387,270.9476 68.48107,275.0308 65.74609,276.8418 62.96221,278.6852 60.95876,279.0918 54.66211,279.0918 50.43512,279.0918 46.67724,278.7905 46.31055,278.4238 45.94389,278.0572 45.64258,264.7911 45.64258,248.9434 L 45.64258,220.1289 48.26953,219.4707 C 48.9917,219.2895 51.01211,219.1846 53.68555,219.1621 Z"
         style="fill:#919292;stroke-width:3.77952766" />
      <path
         inkscape:connector-curvature="0"
         id="path4558-6-8"
         d="M 31.97305,77.49416 C 31.73813,77.25924 31.65706,74.79914 31.66137,68.0353 31.66687,59.41158 31.6977,58.82653 32.20612,57.70332 32.87247,56.23126 33.84603,55.18126 35.22742,54.44479 36.1228,53.96743 36.83789,53.86557 39.87131,53.78336 44.03019,53.67068 44.16976,53.73677 44.04016,55.75824 43.93494,57.39934 43.38813,57.6942 40.43979,57.69943 38.1063,57.70353 36.91803,58.09202 36.42588,59.01158 36.25483,59.3312 36.15347,62.76808 36.15347,68.24763 36.15347,73.04746 36.08121,77.16295 35.99286,77.39314 35.86856,77.7171 35.43213,77.81166 34.06141,77.81166 33.03686,77.81166 32.15675,77.67786 31.97305,77.49416 Z"
         style="fill:#919292;stroke-width:1" />
      <path
         inkscape:connector-curvature="0"
         id="path4556-0-1"
         transform="scale(0.2645833,0.2645833)"
         d="M 203.6641,203.0918 C 189.7359,203.0918 183.6956,203.4392 182.8438,204.291 181.0066,206.1282 181.3249,214.5809 183.293,216.2188 184.5057,217.2278 189.8217,217.7242 203.377,218.0918 L 221.8125,218.5918 224.7734,221.9082 C 227.4771,224.9367 227.7097,225.7637 227.4395,231.4082 L 227.1426,237.5918 212.1426,238.1758 C 195.9139,238.8081 189.9661,240.318 183.1055,245.5508 175.2093,251.5735 171.585,264.6397 174.7051,275.8281 176.5,282.2646 184.2564,290.0469 191.1426,292.3184 198.5904,294.7751 240.1252,294.8693 242.8145,292.4355 244.5149,290.8966 244.6426,288.4911 244.6426,258.1172 244.6426,220.3275 244.2802,217.9895 237.3184,210.8262 230.6392,203.9538 226.8886,203.0918 203.6641,203.0918 Z M 213.2188,253.2461 C 214.638,253.2339 216.144,253.2531 217.7422,253.3027 L 227.1426,253.5918 227.1426,266.0918 227.1426,278.5918 214.6426,278.7656 C 195.4187,279.0336 190.6426,276.5041 190.6426,266.0566 190.6426,262.6812 191.2665,261.2686 193.9277,258.6074 197.5777,254.9575 203.2837,253.3317 213.2188,253.2461 Z"
         style="fill:#919292;stroke-width:3.77952766" />
      <path
         inkscape:connector-curvature="0"
         id="path4552-0-5"
         d="M 69.80846,77.49416 C 69.57153,77.25722 69.49096,74.34014 69.49096,65.99978 L 69.49096,54.82291 70.079,54.41103 C 70.83386,53.88232 72.3814,53.88232 73.13626,54.41103 L 73.7243,54.82291 73.7243,65.99978 C 73.7243,74.34014 73.64373,77.25722 73.4068,77.49416 73.23217,77.66878 72.42255,77.81166 71.60763,77.81166 70.79271,77.81166 69.98309,77.66878 69.80846,77.49416 Z"
         style="fill:#919292;stroke-width:1" />
      <path
         inkscape:connector-curvature="0"
         id="path4550-5-8"
         d="M 79.33346,77.49416 C 79.09653,77.25722 79.01596,74.34014 79.01596,65.99978 L 79.01596,54.82291 79.604,54.41103 C 80.35885,53.88232 81.9064,53.88232 82.66126,54.41103 83.16034,54.76063 83.2499,55.07075 83.25334,56.46155 83.25924,58.85238 83.52502,59.1117 84.75983,57.93169 88.57978,54.28126 92.18766,52.9296 94.98825,54.09978 96.28444,54.64135 97.71121,56.25396 98.3823,57.93595 98.94596,59.34864 98.98039,59.85134 99.06955,67.97249 99.18099,78.12069 99.25397,77.81166 96.74625,77.81166 95.46275,77.81166 95.12387,77.71771 94.90027,77.29988 94.72914,76.98013 94.62582,73.82841 94.6249,68.89935 94.6234,60.76678 94.48382,59.41285 93.55087,58.4799 92.75617,57.6852 91.71331,57.85509 89.79072,59.09239 87.65945,60.46399 83.94346,63.69712 83.54237,64.52881 83.35439,64.91864 83.24929,67.29511 83.24929,71.15662 83.24929,75.4861 83.16013,77.26582 82.93179,77.49416 82.75717,77.66878 81.94754,77.81166 81.13263,77.81166 80.31771,77.81166 79.50809,77.66878 79.33346,77.49416 Z"
         style="fill:#919292;stroke-width:1" />
      <path
         inkscape:connector-curvature="0"
         id="path4548-9-9"
         d="M 149.5684,77.32782 C 149.1759,76.89406 149.1305,75.71568 149.1305,65.95073 149.1305,55.41026 149.1477,55.04034 149.6597,54.52832 150.3119,53.87615 152.184,53.8112 153.0404,54.41103 L 153.6285,54.82291 153.6285,65.8055 C 153.6285,72.87011 153.5307,76.97068 153.3546,77.29988 152.9685,78.02131 150.2144,78.04163 149.5684,77.32782 Z"
         style="fill:#919292;stroke-width:1" />
      <path
         inkscape:connector-curvature="0"
         id="path4542-5-0"
         d="M 70.3874,50.56484 C 68.90364,49.96535 68.20451,47.67659 69.11015,46.3836 69.65908,45.5999 70.85862,45.00332 71.88552,45.00332 73.14518,45.00332 74.51805,46.4766 74.51805,47.82841 74.51805,49.95833 72.3845,51.37176 70.3874,50.56484 Z"
         style="fill:#919292;stroke-width:1" />
      <path
         inkscape:connector-curvature="0"
         id="path4540-7-1"
         d="M 149.9202,50.33282 C 146.8266,48.6841 149.3387,43.97359 152.6361,45.23992 153.4183,45.54029 154.4196,46.94349 154.4212,47.74147 154.4232,48.68844 153.5866,49.98995 152.7081,50.40683 151.5703,50.94676 151.046,50.93285 149.9202,50.33282 Z"
         style="fill:#919292;stroke-width:1" />
    </g>
    <path
       style="fill:#000000;fill-opacity:0;stroke-width:0.71428573"
       d="m 655.89099,113.59696 c -2.787,-0.8768 -5.00207,-3.08284 -6.55637,-6.52966 -1.73657,-3.85104 -1.25547,-5.49177 7.23935,-24.688745 3.75419,-8.483893 7.3561,-17.447149 8.00424,-19.918351 1.47564,-5.626191 1.27095,-6.114543 -7.84301,-18.711559 -16.45676,-22.746009 -17.00086,-23.619138 -17.00086,-27.281873 0,-4.392278 2.89937,-8.5952304 7.08451,-10.2697939 7.39313,-2.9581424 9.66635,-1.1529604 26.8502,21.3218839 7.53962,9.861106 11.13346,13.927136 13.30004,15.04752 2.72268,1.407953 9.89324,1.291027 25.1998,-0.410918 16.57797,-1.843314 23.61923,-1.863311 26.5512,-0.0754 6.299,3.841127 6.00195,15.449494 -0.47977,18.748736 -1.52763,0.777577 -7.8893,1.932744 -17.07741,3.100958 -20.16471,2.563825 -27.9338,3.812485 -29.83796,4.79561 -2.52882,1.305635 -6.02715,7.157347 -12.31207,20.594547 -7.35524,15.725585 -10.91578,21.829365 -13.51906,23.175575 -2.7102,1.4015 -7.06236,1.9007 -9.60283,1.10147 z"
       id="path4650"
       inkscape:connector-curvature="0"
       transform="matrix(0.26458333,0,0,0.26458333,7.5783483,22.087997)" />
    <path
       style="fill:#000000;fill-opacity:0;stroke-width:0.71428573"
       d="m 654.77584,112.99541 c -3.18174,-1.48231 -4.82551,-3.54558 -5.88675,-7.38906 -0.86292,-3.12524 0.40494,-6.98758 7.3443,-22.373202 9.05015,-20.065542 10.29229,-24.899191 7.553,-29.391571 -0.75415,-1.236792 -5.62522,-8.136157 -10.8246,-15.33192 -12.29896,-17.021346 -13.51316,-18.987372 -13.51316,-21.880395 0,-4.909357 4.81646,-10.3775031 9.89674,-11.2358113 5.5139,-0.9315674 8.81933,1.7759945 19.75191,16.1792823 10.41102,13.716154 15.69768,20.017111 17.63571,21.019305 2.68464,1.388282 10.72024,1.251151 25.21564,-0.430318 16.23824,-1.88364 23.53838,-1.878865 26.64867,0.01743 2.51436,1.532967 5.10567,6.236947 5.10567,9.268287 0,2.6513 -2.4627,7.586315 -4.42853,8.874384 -2.16304,1.417271 -5.42915,2.003069 -26.25438,4.708896 -9.23215,1.199533 -17.97412,2.49898 -19.42662,2.887661 -3.80231,1.017478 -6.38787,4.516554 -12.1082,16.386201 -7.17373,14.885435 -11.29021,22.928211 -12.89251,25.189351 -2.91501,4.1136 -9.12499,5.68733 -13.81689,3.50148 z"
       id="path4652"
       inkscape:connector-curvature="0"
       transform="matrix(0.26458333,0,0,0.26458333,7.5783483,22.087997)" />
  </g>
</svg>
